<svg width="167" height="34" viewBox="0 0 167 34" fill="none" xmlns="http://www.w3.org/2000/svg">
<path d="M1.57031 6.98438H6.61523V15.1055L13.5879 6.98438H19.4668L11.8516 15.8027L19.7539 27H13.8613L8.625 19.4121L6.61523 21.709V27H1.57031V6.98438ZM26.3438 24.0879C27.0547 24.0879 27.6152 23.9512 28.0254 23.6777C28.4447 23.4043 28.7318 23.0671 28.8867 22.666H33.3438C32.9427 24.1608 32.1589 25.332 30.9922 26.1797C29.8346 27.0273 28.3125 27.4512 26.4258 27.4512C24.0742 27.4512 22.2103 26.7493 20.834 25.3457C19.4668 23.9421 18.7832 22.1055 18.7832 19.8359C18.7832 17.612 19.4531 15.7891 20.793 14.3672C22.1328 12.9362 23.9238 12.2207 26.166 12.2207C27.7611 12.2207 29.1191 12.5944 30.2402 13.3418C31.3704 14.0892 32.2044 15.1146 32.7422 16.418C33.2891 17.7214 33.5625 19.2526 33.5625 21.0117H23.2539C23.2539 21.9688 23.5547 22.7207 24.1562 23.2676C24.7669 23.8145 25.4961 24.0879 26.3438 24.0879ZM28.2852 16.0762C27.7565 15.5566 27.0501 15.2969 26.166 15.2969C25.2819 15.2969 24.5755 15.5566 24.0469 16.0762C23.5182 16.5866 23.2539 17.3249 23.2539 18.291H29.0781C29.0781 17.3249 28.8138 16.5866 28.2852 16.0762ZM44.3359 12.2207C45.7487 12.2207 46.8743 12.6673 47.7129 13.5605C48.5605 14.4447 48.9844 15.6934 48.9844 17.3066V27H44.5V18.7422C44.5 17.694 44.3177 16.9512 43.9531 16.5137C43.5977 16.0762 43.0326 15.8574 42.2578 15.8574C40.4714 15.8574 39.5781 16.8099 39.5781 18.7148V27H35.0938V12.6582H39.5781V14.7363H39.6328C40.5898 13.0592 42.1576 12.2207 44.3359 12.2207ZM54.918 10.4297C54.4987 10.776 53.9609 10.9492 53.3047 10.9492C52.6484 10.9492 52.1107 10.776 51.6914 10.4297C51.2721 10.0833 51.0625 9.5957 51.0625 8.9668C51.0625 8.34701 51.2721 7.86393 51.6914 7.51758C52.1107 7.16211 52.6484 6.98438 53.3047 6.98438C53.9609 6.98438 54.4987 7.16211 54.918 7.51758C55.3372 7.86393 55.5469 8.34701 55.5469 8.9668C55.5469 9.5957 55.3372 10.0833 54.918 10.4297ZM51.0625 12.6582H55.5469V27H51.0625V12.6582ZM57.625 6.98438H62.1094V27H57.625V6.98438ZM81.1543 22.8301H74.291L73.0059 27H67.9609L75.207 6.98438H80.252L87.4707 27H82.4395L81.1543 22.8301ZM75.4395 18.9883H80.0332L77.7637 11.6055H77.709L75.4395 18.9883ZM85.7344 12.6582H90.2188L93.1309 22.0098H93.1855L96.0977 12.6582H100.568L95.6191 27H90.6836L85.7344 12.6582ZM109.469 16.6367C109.469 15.7435 108.863 15.2969 107.65 15.2969C106.839 15.2969 106.229 15.4564 105.818 15.7754C105.417 16.0944 105.18 16.5957 105.107 17.2793H100.91C100.947 16.5684 101.102 15.9167 101.375 15.3242C101.648 14.7318 102.049 14.1986 102.578 13.7246C103.107 13.2507 103.804 12.8815 104.67 12.6172C105.545 12.3529 106.548 12.2207 107.678 12.2207C109.774 12.2207 111.342 12.6901 112.381 13.6289C113.429 14.5586 113.953 16.1126 113.953 18.291V24.8672C113.953 25.5781 114.231 25.9336 114.787 25.9336V27C113.994 27.3008 113.128 27.4512 112.189 27.4512C111.26 27.4512 110.599 27.2689 110.207 26.9043C109.815 26.5306 109.619 26.0566 109.619 25.4824H109.564C109.072 26.0475 108.421 26.5169 107.609 26.8906C106.807 27.2643 105.955 27.4512 105.053 27.4512C103.576 27.4512 102.423 27.0729 101.594 26.3164C100.764 25.5599 100.35 24.5664 100.35 23.3359C100.35 21.9688 100.81 20.9069 101.73 20.1504C102.66 19.3939 104.018 18.8379 105.805 18.4824C107.126 18.2181 107.979 18.013 108.361 17.8672C109.1 17.5664 109.469 17.1562 109.469 16.6367ZM106.611 24.3613C107.523 24.3613 108.225 24.1107 108.717 23.6094C109.218 23.1081 109.469 22.4928 109.469 21.7637V20.0273C108.876 20.2552 108.111 20.4694 107.172 20.6699C105.604 21.0254 104.82 21.6999 104.82 22.6934C104.82 23.8053 105.417 24.3613 106.611 24.3613ZM120.352 10.4297C119.932 10.776 119.395 10.9492 118.738 10.9492C118.082 10.9492 117.544 10.776 117.125 10.4297C116.706 10.0833 116.496 9.5957 116.496 8.9668C116.496 8.34701 116.706 7.86393 117.125 7.51758C117.544 7.16211 118.082 6.98438 118.738 6.98438C119.395 6.98438 119.932 7.16211 120.352 7.51758C120.771 7.86393 120.98 8.34701 120.98 8.9668C120.98 9.5957 120.771 10.0833 120.352 10.4297ZM116.496 12.6582H120.98V27H116.496V12.6582ZM136.977 12.6582L132.096 27.2734C131.485 29.0872 130.783 30.3177 129.99 30.9648C129.197 31.6211 128.035 31.9492 126.504 31.9492C125.72 31.9492 124.886 31.8581 124.002 31.6758V28.3125H124.057C125.415 28.6133 126.322 28.4173 126.777 27.7246C127.16 27.1413 127.124 26.207 126.668 24.9219L121.992 12.6582H126.477L129.717 22.0781H129.771L132.492 12.6582H136.977ZM145.863 16.6367C145.863 15.7435 145.257 15.2969 144.045 15.2969C143.234 15.2969 142.623 15.4564 142.213 15.7754C141.812 16.0944 141.575 16.5957 141.502 17.2793H137.305C137.341 16.5684 137.496 15.9167 137.77 15.3242C138.043 14.7318 138.444 14.1986 138.973 13.7246C139.501 13.2507 140.199 12.8815 141.064 12.6172C141.939 12.3529 142.942 12.2207 144.072 12.2207C146.169 12.2207 147.736 12.6901 148.775 13.6289C149.824 14.5586 150.348 16.1126 150.348 18.291V24.8672C150.348 25.5781 150.626 25.9336 151.182 25.9336V27C150.389 27.3008 149.523 27.4512 148.584 27.4512C147.654 27.4512 146.993 27.2689 146.602 26.9043C146.21 26.5306 146.014 26.0566 146.014 25.4824H145.959C145.467 26.0475 144.815 26.5169 144.004 26.8906C143.202 27.2643 142.35 27.4512 141.447 27.4512C139.971 27.4512 138.818 27.0729 137.988 26.3164C137.159 25.5599 136.744 24.5664 136.744 23.3359C136.744 21.9688 137.204 20.9069 138.125 20.1504C139.055 19.3939 140.413 18.8379 142.199 18.4824C143.521 18.2181 144.373 18.013 144.756 17.8672C145.494 17.5664 145.863 17.1562 145.863 16.6367ZM143.006 24.3613C143.917 24.3613 144.619 24.1107 145.111 23.6094C145.613 23.1081 145.863 22.4928 145.863 21.7637V20.0273C145.271 20.2552 144.505 20.4694 143.566 20.6699C141.999 21.0254 141.215 21.6999 141.215 22.6934C141.215 23.8053 141.812 24.3613 143.006 24.3613Z" fill="#2F2F2F"/>
<path d="M161.557 19.7559C160.632 20.1335 159.617 20.3223 158.51 20.3223C157.403 20.3223 156.384 20.1335 155.453 19.7559C154.529 19.3783 153.751 18.8607 153.119 18.2031C152.488 17.5391 151.996 16.748 151.645 15.8301C151.299 14.9121 151.127 13.9225 151.127 12.8613C151.127 11.8001 151.299 10.8105 151.645 9.89258C151.996 8.97461 152.488 8.18359 153.119 7.51953C153.751 6.84896 154.529 6.32487 155.453 5.94727C156.384 5.56966 157.403 5.38086 158.51 5.38086C159.617 5.38086 160.632 5.56966 161.557 5.94727C162.488 6.32487 163.266 6.84896 163.891 7.51953C164.516 8.18359 165.001 8.97461 165.346 9.89258C165.691 10.804 165.863 11.7936 165.863 12.8613C165.863 13.9225 165.691 14.9121 165.346 15.8301C165.001 16.748 164.512 17.5391 163.881 18.2031C163.256 18.8607 162.481 19.3783 161.557 19.7559ZM158.51 19.3164C159.46 19.3164 160.326 19.1536 161.107 18.8281C161.889 18.4961 162.536 18.0404 163.051 17.4609C163.565 16.8815 163.962 16.2012 164.242 15.4199C164.522 14.6322 164.662 13.7793 164.662 12.8613C164.662 11.9368 164.522 11.0807 164.242 10.293C163.962 9.50521 163.565 8.82161 163.051 8.24219C162.536 7.65625 161.889 7.20052 161.107 6.875C160.326 6.54297 159.46 6.37695 158.51 6.37695C157.234 6.37695 156.124 6.66341 155.18 7.23633C154.236 7.80924 153.523 8.58073 153.041 9.55078C152.566 10.5208 152.328 11.6243 152.328 12.8613C152.328 14.0918 152.566 15.1921 153.041 16.1621C153.523 17.1257 154.236 17.8939 155.18 18.4668C156.124 19.0332 157.234 19.3164 158.51 19.3164ZM159.945 11.7773C159.835 10.8203 159.363 10.3418 158.529 10.3418C157.449 10.3418 156.908 11.1816 156.908 12.8613C156.908 14.528 157.449 15.3613 158.529 15.3613C159.018 15.3613 159.363 15.2311 159.564 14.9707C159.773 14.7038 159.9 14.3457 159.945 13.8965H162.523C162.465 14.9251 162.094 15.7585 161.41 16.3965C160.733 17.028 159.805 17.3438 158.627 17.3438C157.299 17.3438 156.238 16.9303 155.443 16.1035C154.656 15.2767 154.262 14.196 154.262 12.8613C154.262 11.5332 154.643 10.4525 155.404 9.61914C156.166 8.7793 157.188 8.35938 158.471 8.35938C159.662 8.35938 160.609 8.67513 161.312 9.30664C162.016 9.93164 162.419 10.7552 162.523 11.7773H159.945Z" fill="#2F2F2F"/>
</svg>
